# xmcd CD database file
#
# Track frame offsets:
#	150
#	17854
#	41317
#	59007
#
# Disc length: 1098 seconds
#
# Revision: 0
# Processed by: cddbd v1.5.1PL0 Copyright (c) Steve Scherf et al.
# Submitted via: CDex 1.51
#
DISCID=2e044804
DTITLE=X.Y.Z.→A - Don't Let The Sun Go Down
DYEAR=1900
DGENRE=Heavy Metal
TTITLE0=Don't Let The Sun Go Down
TTITLE1=Lonely Nights
TTITLE2=Don't Let The Sun Go Down (Karaoke)
TTITLE3=Lonely Nights (Karaoke)
EXTD=
EXTT0=
EXTT1=
EXTT2=
EXTT3=
PLAYORDER=
